# xmcd
#
# Track frame offsets:
#	150
#	12642
#	26325
#	37490
#	48800
#	59515
#	70582
#	83640
#	98380
#	107910
#	120420
#	133057
#
# Disc length: 1967 seconds
#
# Revision: 6
# Processed by: cddbd v1.5.2PL0 Copyright (c) Steve Scherf et al.
# Submitted via: audiograbber 1.83.01
#
DISCID=9907ad0c
DTITLE=Bo Diddley - 20th Century Masters - The Millennium Collection - The Best
DTITLE=Of
DYEAR=2000
DGENRE=Oldies
TTITLE0=Bo Diddley
TTITLE1=I'm A Man
TTITLE2=Diddley Daddy
TTITLE3=Who Do You Love 
TTITLE4=Mona
TTITLE5=I'm Sorry
TTITLE6=Dearest Darling
TTITLE7=Say Man
TTITLE8=Crackin' Up
TTITLE9=Don't Let It Go (Hold On To What You Got)
TTITLE10=Road Runner
TTITLE11=You Can't Judge A Book By Its Cover
EXTD=
EXTT0=
EXTT1=
EXTT2=
EXTT3=
EXTT4=
EXTT5=
EXTT6=
EXTT7=
EXTT8=
EXTT9=
EXTT10=
EXTT11=
PLAYORDER=
